<?xml version="1.0" encoding="utf-8" ?>
<svg xmlns="http://www.w3.org/2000/svg" xmlns:xlink="http://www.w3.org/1999/xlink" width="1024" height="193">
	<path fill="#FEFEFE" d="M150.016 17.9729C159.46 20.0352 166.477 26.4373 171.585 34.3985C172.834 36.3452 173.968 38.5765 175.431 40.3554C174.693 41.3705 174.472 41.813 173.147 42.0245C171.784 42.2418 170.228 42.1081 168.845 42.0872C168.402 42.1303 167.483 41.9206 167.153 41.616C165.885 40.4465 164.561 37.5319 163.543 36.0326C159.239 29.6965 153.815 23.6623 147.131 19.7918L150.016 17.9729Z"/>
	<path fill="#839099" d="M77.0327 16.9153C95.5481 7.81698 114.635 3.55257 134.824 10.4251Q138.847 11.8197 142.661 13.7143Q146.474 15.6089 150.016 17.9729L147.131 19.7918C143.765 18.1543 140.485 16.3052 137.04 14.8378C117.007 6.30516 97.1715 11.8266 78.1138 19.5292L77.0327 16.9153Z"/>
	<path fill="#48525C" d="M175.431 40.3554C177.374 39.5248 181.932 38.5918 183.911 39.4128C185.123 39.9158 185.968 40.7597 186.443 41.9885C189.133 48.9502 184.4 60.0837 181.702 66.625C185.029 84.4483 186.039 105.631 175.815 121.512L173.614 119.213C182.478 102.376 180.696 84.2662 177.954 66.2333C182.119 57.9468 182.225 51.5919 182.097 42.4908C177.7 42.4982 173.208 42.6904 168.845 42.0872C170.228 42.1081 171.784 42.2418 173.147 42.0245C174.472 41.813 174.693 41.3705 175.431 40.3554Z"/>
	<defs>
		<linearGradient id="gradient_0" gradientUnits="userSpaceOnUse" x1="100.24109" y1="195.10042" x2="60.658066" y2="12.085464">
			<stop offset="0" stop-color="#C0C6C7"/>
			<stop offset="1" stop-color="white"/>
		</linearGradient>
	</defs>
	<path fill="url(#gradient_0)" d="M20.4486 183.575C13.2038 177.726 6.00888 170.551 4.58053 160.86C3.54591 153.841 3.89103 146.567 3.8195 139.484Q3.62406 121.301 3.62479 103.119L3.57945 70.7075C3.55463 61.8251 3.14751 52.6639 4.59227 43.8664C5.36068 39.1872 7.50432 34.8474 10.3272 31.0687C26.4391 9.50193 54.4479 20.1566 77.0327 16.9153L78.1138 19.5292C74.3988 21.2457 70.5785 23.8597 66.545 24.5984C63.5216 25.152 60.2304 24.9391 57.1667 24.9225C40.0999 24.8299 20.7799 21.5223 13.4669 41.4167C12.3604 44.4267 11.7793 47.5884 11.5684 50.7831C11.1349 57.3516 11.4324 64.061 11.4507 70.6484L11.4278 103.807L11.31 136.66C11.2898 142.776 10.971 149.089 11.4637 155.176C11.7636 158.881 12.6319 162.459 14.2047 165.835C17.2421 172.355 22.9037 176.957 29.614 179.394C31.7636 180.175 33.6961 180.586 35.9758 180.736C42.8181 181.187 49.8115 180.91 56.669 180.904L91.5923 180.911L124.365 180.901C131.35 180.896 138.456 181.131 145.418 180.543Q147.37 180.37 149.259 179.851Q151.149 179.332 152.915 178.483Q153.508 178.203 154.087 177.894Q154.666 177.586 155.23 177.25Q155.793 176.913 156.339 176.55Q156.886 176.187 157.414 175.797Q157.941 175.408 158.45 174.993Q158.958 174.578 159.446 174.139Q159.934 173.7 160.399 173.238Q160.865 172.776 161.308 172.292Q161.75 171.808 162.169 171.303Q162.588 170.797 162.981 170.272Q163.375 169.747 163.742 169.204Q164.11 168.66 164.45 168.1Q164.791 167.539 165.104 166.962Q165.417 166.386 165.702 165.795Q165.986 165.204 166.242 164.599Q166.497 163.995 166.723 163.379C169.507 155.597 168.464 146.318 168.471 138.154C170.967 137.127 171.888 134.478 173.981 133.101C174.569 132.714 174.637 132.679 175.342 132.831L175.93 135.291C176.002 142.67 176.483 150.387 175.709 157.72C174.483 169.313 168.276 176.634 159.556 183.695C150.845 184.307 141.916 183.755 133.173 183.713L86.7788 183.683L44.7445 183.743C36.718 183.779 28.4358 184.297 20.4486 183.575Z"/>
	<path fill="#000203" d="M78.1138 19.5292C97.1715 11.8266 117.007 6.30516 137.04 14.8378C140.485 16.3052 143.765 18.1543 147.131 19.7918C153.815 23.6623 159.239 29.6965 163.543 36.0326C164.561 37.5319 165.885 40.4465 167.153 41.616C167.483 41.9206 168.402 42.1303 168.845 42.0872C173.208 42.6904 177.7 42.4982 182.097 42.4908C182.225 51.5919 182.119 57.9468 177.954 66.2333C180.696 84.2662 182.478 102.376 173.614 119.213L175.815 121.512C174.996 122.877 172.672 125.936 172.706 127.378C173.947 126.845 174.464 126.313 175.757 126.802C176.151 129.594 175.983 132.477 175.93 135.291L175.342 132.831C174.637 132.679 174.569 132.714 173.981 133.101C171.888 134.478 170.967 137.127 168.471 138.154C168.464 146.318 169.507 155.597 166.723 163.379Q166.497 163.995 166.242 164.599Q165.986 165.204 165.702 165.795Q165.417 166.386 165.104 166.962Q164.791 167.539 164.45 168.1Q164.11 168.66 163.742 169.204Q163.375 169.747 162.981 170.272Q162.588 170.797 162.169 171.303Q161.75 171.808 161.308 172.292Q160.865 172.776 160.399 173.238Q159.934 173.7 159.446 174.139Q158.958 174.578 158.45 174.993Q157.941 175.408 157.414 175.797Q156.886 176.187 156.339 176.55Q155.793 176.913 155.23 177.25Q154.666 177.586 154.087 177.894Q153.508 178.203 152.915 178.483Q151.149 179.332 149.259 179.851Q147.37 180.37 145.418 180.543C138.456 181.131 131.35 180.896 124.365 180.901L91.5923 180.911L56.669 180.904C49.8115 180.91 42.8181 181.187 35.9758 180.736C33.6961 180.586 31.7636 180.175 29.614 179.394C22.9037 176.957 17.2421 172.355 14.2047 165.835C12.6319 162.459 11.7636 158.881 11.4637 155.176C10.971 149.089 11.2898 142.776 11.31 136.66L11.4278 103.807L11.4507 70.6484C11.4324 64.061 11.1349 57.3516 11.5684 50.7831C11.7793 47.5884 12.3604 44.4267 13.4669 41.4167C20.7799 21.5223 40.0999 24.8299 57.1667 24.9225C60.2304 24.9391 63.5216 25.152 66.545 24.5984C70.5785 23.8597 74.3988 21.2457 78.1138 19.5292ZM31.3379 91.0911C31.666 92.4599 31.482 92.8914 30.6893 94.0633C30.5913 94.2082 30.4824 94.3325 30.3581 94.4546C27.707 94.7498 25.6632 97.7782 24.0261 99.8475Q23.5855 100.412 23.1865 101.007C23.1489 105.374 20.6217 110.209 20.2223 114.839C21.5645 116.806 23.0924 122.074 23.1062 124.472C23.8107 127.187 24.7571 130.646 26.4469 132.905L28.1113 130.879L28.3184 135.081L27.7691 138.001C32.3892 133.783 36.5179 130.391 41.9856 127.317C42.3845 127.337 42.8945 127.3 43.2666 127.435C42.0986 132.877 41.1262 138.824 42.2347 144.362C42.6586 147.494 43.1539 150.558 43.8645 153.638C44.369 155.678 44.8871 157.704 45.4939 159.717L46.6453 162.638C47.3438 164.862 47.7544 167.239 49.5321 168.8C50.8217 168.528 51.059 167.858 51.8683 166.849C58.5636 159.501 65.3916 152.555 70.9623 144.274C71.2315 140.397 72.7553 136.889 72.2507 132.95C67.2313 137.499 60.4917 144.212 54.2263 146.914C54.0159 147.124 53.687 147.118 53.3961 147.166C52.3454 145.184 52.1255 142.146 51.7267 139.918C49.0327 130.767 49.7692 122.504 52.795 113.627C54.3404 111.183 56.0592 109.007 57.9341 106.808C51.0651 108.949 44.0825 111.134 36.9834 112.373C35.8913 112.654 35.0357 112.868 33.9007 112.644C32.9889 111.135 33.4582 109.248 33.5515 107.5C34.0967 97.4198 36.2655 91.9543 43.3661 84.7814C40.2237 84.8764 33.6525 88.3165 31.5562 90.7245C31.4642 90.8302 31.3959 90.9643 31.3379 91.0911Z"/>
	<path fill="#FEFEFE" d="M172.906 49.2975C173.65 49.5775 174.614 49.8782 175.239 50.3684C176.212 51.1312 176.351 51.7622 176.52 52.9221C176.079 54.3844 175.128 55.0535 173.956 55.9562Q173.568 55.7837 173.193 55.5856C171.814 54.8529 171.151 53.9578 170.714 52.5167C170.881 51.0107 171.845 50.2717 172.906 49.2975Z"/>
	<path fill="#AF0032" d="M161.452 55.2218C162.512 55.1069 163.66 54.9552 164.715 55.1638C166.091 55.4361 167.551 56.4612 168.317 57.6317C169.777 59.8598 170.054 64.0954 169.534 66.6769L168.984 66.641C166.545 62.5792 162.858 59.6479 160.402 55.7257L161.452 55.2218Z"/>
	<path fill="#FEFEFE" d="M50.6122 43.4287Q51.4364 43.3777 52.2614 43.4116C53.4835 43.4711 54.8268 43.8725 55.6537 44.8328C56.4472 45.7543 56.7327 46.6193 56.6375 47.833C56.521 49.3186 55.2742 50.3875 54.2286 51.2949C54.0803 51.318 53.9337 51.3379 53.7838 51.3478C52.2386 51.4497 50.8272 51.2245 49.6394 50.1446C48.8814 49.4554 48.5507 48.4947 48.5301 47.4873C48.493 45.6845 49.4321 44.6801 50.6122 43.4287Z"/>
	<path fill="#FEFEFE" d="M23.1865 101.007C23.1489 105.374 20.6217 110.209 20.2223 114.839C19.4137 120.589 19.4334 127.774 17.4888 133.164C15.9828 122.571 17.0895 110.067 23.1865 101.007Z"/>
	<path fill="#043E85" d="M32.4659 64.8467C34.8908 61.7108 38.2677 58.9763 41.3886 56.5613C42.9582 58.7184 44.7722 60.759 46.4588 62.8299C45.1336 63.4797 43.4222 64.1049 42.3521 65.1202L41.865 65.1225C38.8178 64.4694 35.5651 64.7556 32.4659 64.8467Z"/>
	<path fill="#B5C0C7" d="M173.614 119.213L175.815 121.512C174.996 122.877 172.672 125.936 172.706 127.378C173.947 126.845 174.464 126.313 175.757 126.802C176.151 129.594 175.983 132.477 175.93 135.291L175.342 132.831C174.637 132.679 174.569 132.714 173.981 133.101C171.888 134.478 170.967 137.127 168.471 138.154L168.44 126.831C170.278 124.352 171.974 121.827 173.614 119.213Z"/>
	<path fill="#E63803" d="M67.3157 101.155C80.0642 104.517 93.6045 104.65 105.65 98.9568C104.884 101.269 103.205 102.225 101.134 103.26C95.6721 105.989 85.9689 105.756 83.6678 106.916L83.2012 107.012C78.9339 105.752 72.5333 106.105 67.2372 104.657C67.0557 103.626 67.277 102.221 67.3157 101.155Z"/>
	<path fill="#E63803" d="M58.0274 64.8992C58.0992 61.9326 58.3738 58.408 59.0654 55.5235C59.7734 52.5709 61.3682 49.6896 64.0193 48.0849C68.2971 45.4955 76.3163 45.9126 81.0871 47.0502C74.2415 49.243 68.8856 52.4477 64.4288 58.1855C61.8636 60.0236 59.9741 62.4447 58.0274 64.8992Z"/>
	<path fill="#043E85" d="M43.8645 153.638C44.369 155.678 44.8871 157.704 45.4939 159.717C45.3984 164.334 45.9134 168.713 47.0108 173.196C42.7715 173.172 38.46 172.987 34.228 173.147C34.9613 167.736 37.4038 162.958 40.5642 158.574C41.7064 156.989 43.1189 155.457 43.8645 153.638Z"/>
	<path fill="#043E85" d="M52.0201 173.131C57.7735 168.024 63.0851 162.386 68.7987 157.309C68.8867 160.471 69.4629 163.352 70.192 166.423L72.1234 173.064Q67.6469 173.101 63.1704 173.061C59.4559 173.032 55.735 173.105 52.0201 173.131Z"/>
	<path fill="#075ABB" d="M63.1704 173.061C64.931 171.455 67.3194 167.583 69.4066 166.71C69.6662 166.601 69.9209 166.501 70.192 166.423L72.1234 173.064Q67.6469 173.101 63.1704 173.061Z"/>
	<path fill="#068CF8" d="M17.4888 133.164C19.4334 127.774 19.4137 120.589 20.2223 114.839C21.5645 116.806 23.0924 122.074 23.1062 124.472C23.8107 127.187 24.7571 130.646 26.4469 132.905C24.1918 136.109 22.1222 139.199 21.002 142.992C19.7668 147.174 20.4772 155.575 18.6386 158.578C15.83 151.101 17.2273 141.05 17.4888 133.164Z"/>
	<path fill="#043E85" d="M28.1113 130.879L28.3184 135.081L27.7691 138.001C25.3927 145.044 25.4031 153.686 26.1443 161.061C26.4906 164.011 26.9312 166.979 27.1767 169.937L27.0497 169.862C23.3724 167.621 19.6859 162.741 18.6386 158.578C20.4772 155.575 19.7668 147.174 21.002 142.992C22.1222 139.199 24.1918 136.109 26.4469 132.905L28.1113 130.879Z"/>
	<path fill="#52B502" d="M75.0075 143.915C75.7386 150.476 76.273 159.502 79.3765 165.342C80.045 167.216 80.68 169.111 81.4014 170.965L82.1796 172.223L82.0537 173.169C78.7406 173.23 75.4351 173.147 72.1234 173.064L70.192 166.423C69.4629 163.352 68.8867 160.471 68.7987 157.309L72.296 149.532C73.0965 147.577 73.9524 145.747 75.0075 143.915Z"/>
	<path fill="#2C9506" d="M75.0075 143.915C75.7386 150.476 76.273 159.502 79.3765 165.342C80.045 167.216 80.68 169.111 81.4014 170.965L80.2279 171.32C74.2153 168.168 76.1816 153.463 72.296 149.532C73.0965 147.577 73.9524 145.747 75.0075 143.915Z"/>
	<path fill="#FEA904" d="M64.4288 58.1855C61.664 65.3112 60.3807 71.4206 63.5876 78.7215Q63.8184 79.2532 64.075 79.773Q64.3316 80.2927 64.6135 80.7992Q64.8953 81.3057 65.2017 81.7978Q65.5081 82.2898 65.8384 82.7662Q66.1686 83.2426 66.5218 83.7021Q66.8751 84.1617 67.2505 84.6034Q67.6259 85.045 68.0225 85.4677Q68.4192 85.8904 68.8361 86.293Q69.2531 86.6957 69.6893 87.0774Q70.1255 87.4591 70.58 87.8189Q71.0345 88.1786 71.5061 88.5157Q71.9777 88.8527 72.4653 89.1661Q72.9529 89.4795 73.4553 89.7686Q73.9577 90.0577 74.4737 90.3217Q74.9897 90.5858 75.5181 90.8241Q76.0465 91.0625 76.5859 91.2746C82.608 93.5934 90.1184 93.4027 96.0105 90.7737C105.798 86.4064 104.97 81.8002 110.705 75.0175C110.425 79.7243 108.152 84.431 104.823 87.7332C99.7005 92.8152 92.4609 94.3735 85.4641 94.3508C78.1694 94.3272 68.8493 93.4903 63.4068 87.9923C57.5653 82.0914 57.9699 72.579 58.0274 64.8992C59.9741 62.4447 61.8636 60.0236 64.4288 58.1855Z"/>
	<path fill="#FB8201" d="M45.4121 74.3018L47.312 72.9848C49.2975 82.7757 51.1745 91.7127 60.0487 97.6041C62.3269 99.1166 64.7747 100.172 67.3157 101.155C67.277 102.221 67.0557 103.626 67.2372 104.657C72.5333 106.105 78.9339 105.752 83.2012 107.012C79.2386 111.807 70.6217 116.719 64.9221 119.079C65.3332 114.338 66.059 109.571 66.7396 104.861C65.054 104.448 63.3183 103.651 61.6763 103.06C58.35 101.607 55.7421 99.4654 53.1186 96.9994C51.0521 94.1066 49.3302 91.2332 48.2574 87.8251C47.5902 86.0192 47.2016 83.9525 46.7108 82.0815Q46.0336 78.1963 45.4121 74.3018Z"/>
	<path fill="#FEFEFE" d="M63.5173 34.6028C82.3765 23.5993 106.602 13.7664 128.604 19.5499C138.577 22.1717 149.651 28.1485 154.988 37.3765Q155.118 37.6025 155.236 37.8355C152.902 37.2235 149.689 33.6044 147.6 32.038C146.72 30.6175 143.086 28.7596 141.548 27.9157C128.044 20.5087 108.321 20.7242 93.9231 24.9272C83.843 27.3257 74.4735 31.0482 65.3656 35.96C57.9183 35.8684 50.4846 35.4688 43.0401 35.3109C35.7472 40.7851 29.5181 47.6029 21.9062 52.6646C27.98 45.9501 34.8705 38.8975 42.0797 33.4115C49.2327 33.7033 56.3698 34.3051 63.5173 34.6028Z"/>
	<path fill="#068CF8" d="M46.4588 62.8299C46.9354 66.0903 47.3947 69.6802 47.312 72.9848L45.4121 74.3018C39.4494 77.3432 35.3601 80.8789 30.9585 85.8947C28.9327 88.8207 26.828 91.9981 26.1793 95.5593C22.9203 98.8096 19.7094 101.93 16.9961 105.671C18.921 88.1641 20.5682 78.7703 32.4659 64.8467C35.5651 64.7556 38.8178 64.4694 41.865 65.1225L42.3521 65.1202C43.4222 64.1049 45.1336 63.4797 46.4588 62.8299Z"/>
	<path fill="#099EFA" d="M30.2111 82.703C30.0383 83.6019 29.8932 84.3094 29.3439 85.0671C29.0428 85.4825 28.7631 85.4229 28.2819 85.4966C28.1583 85.3292 28.0466 85.1659 27.9573 84.977C27.2955 83.5765 28.0121 81.1674 28.5153 79.758C29.5495 76.8619 31.6031 74.8058 34.3404 73.5219C33.2078 75.7304 31.8346 78.0108 30.9724 80.3305L30.2111 82.703Z"/>
	<path fill="#63C203" d="M46.4588 62.8299C46.9354 66.0903 47.3947 69.6802 47.312 72.9848L45.4121 74.3018C39.4494 77.3432 35.3601 80.8789 30.9585 85.8947L30.2111 82.703L30.9724 80.3305C31.8346 78.0108 33.2078 75.7304 34.3404 73.5219C36.8471 70.617 39.0437 67.7719 41.865 65.1225L42.3521 65.1202C43.4222 64.1049 45.1336 63.4797 46.4588 62.8299Z"/>
	<path fill="#2C9506" d="M46.4588 62.8299C46.9354 66.0903 47.3947 69.6802 47.312 72.9848L45.4121 74.3018C39.4494 77.3432 35.3601 80.8789 30.9585 85.8947L30.2111 82.703L30.9724 80.3305C35.9892 77.8128 40.0313 74.958 45.4043 72.9755C44.5785 70.2478 43.8368 67.5751 42.3521 65.1202C43.4222 64.1049 45.1336 63.4797 46.4588 62.8299Z"/>
	<path fill="#011A30" d="M115.277 93.1554C116.41 91.9326 116.718 91.5286 118.302 91.0672C120.28 91.4647 131.511 107.1 144.251 107.713C145.568 107.777 146.219 107.354 147.089 108.459C147.026 109.64 146.148 110.397 145.323 111.141C140.905 115.126 134.96 117.78 129.008 117.448C123.79 117.156 117.838 115.185 114.267 111.181C113.706 110.551 113.317 109.779 112.981 109.011C112.971 108.987 112.962 108.963 112.953 108.94C112.961 103.549 113.801 98.3266 115.277 93.1554Z"/>
	<path fill="#EA0140" d="M147.6 32.038C149.689 33.6044 152.902 37.2235 155.236 37.8355C157.236 39.7796 158.292 44.1747 159.121 46.75C156.801 47.0873 154.475 47.6303 152.171 48.0767Q151.379 47.7587 150.582 47.451C139.819 43.2981 129.989 46.4727 119.887 50.9482C110.528 39.4115 90.0716 38.2638 76.2615 36.7028C86.5535 34.3469 98.3754 34.3866 108.59 36.9529C112.132 37.8428 115.926 39.8317 119.546 40.0668C123.28 40.3093 125.809 38.0361 129.33 37.4128C135.858 36.2571 141.809 38.7473 148.096 39.8043L152.666 43.0694C151.082 40.2665 146.912 35.1108 147.6 32.038Z"/>
	<path fill="#0076F6" d="M41.9856 127.317C42.3845 127.337 42.8945 127.3 43.2666 127.435C42.0986 132.877 41.1262 138.824 42.2347 144.362C42.6586 147.494 43.1539 150.558 43.8645 153.638C43.1189 155.457 41.7064 156.989 40.5642 158.574C37.4038 162.958 34.9613 167.736 34.228 173.147C31.5828 172.453 29.4064 171.512 27.1767 169.937C26.9312 166.979 26.4906 164.011 26.1443 161.061C25.4031 153.686 25.3927 145.044 27.7691 138.001C32.3892 133.783 36.5179 130.391 41.9856 127.317Z"/>
	<path fill="#06C5FB" d="M41.9856 127.317C37.665 135.038 33.5304 143.224 30.0237 151.345C29.1252 153.426 27.7474 159.935 26.1443 161.061C25.4031 153.686 25.3927 145.044 27.7691 138.001C32.3892 133.783 36.5179 130.391 41.9856 127.317Z"/>
	<path fill="#FED402" d="M30.9585 85.8947C35.3601 80.8789 39.4494 77.3432 45.4121 74.3018Q46.0336 78.1963 46.7108 82.0815C47.2016 83.9525 47.5902 86.0192 48.2574 87.8251C49.3302 91.2332 51.0521 94.1066 53.1186 96.9994C55.7421 99.4654 58.35 101.607 61.6763 103.06L60.7259 104.685C59.8632 105.358 58.8906 106.308 57.9341 106.808C51.0651 108.949 44.0825 111.134 36.9834 112.373C35.8913 112.654 35.0357 112.868 33.9007 112.644C32.9889 111.135 33.4582 109.248 33.5515 107.5C34.0967 97.4198 36.2655 91.9543 43.3661 84.7814C40.2237 84.8764 33.6525 88.3165 31.5562 90.7245C31.4642 90.8302 31.3959 90.9643 31.3379 91.0911C29.6972 92.5516 27.9933 94.3445 26.1793 95.5593C26.828 91.9981 28.9327 88.8207 30.9585 85.8947Z"/>
	<path fill="#FEA904" d="M48.2574 87.8251C49.3302 91.2332 51.0521 94.1066 53.1186 96.9994L52.3954 97.8024C51.8877 97.839 51.3643 97.8564 50.858 97.7913C49.5406 97.6219 48.6634 97.2197 47.8518 96.1651C46.9435 93.73 47.8944 90.3808 48.2574 87.8251Z"/>
	<path fill="#FEFEFE" d="M43.3661 84.7814L44.8021 84.818C42.9006 87.4828 40.9497 90.1499 39.5266 93.1083C37.9833 96.3168 35.6739 105.293 33.5515 107.5C34.0967 97.4198 36.2655 91.9543 43.3661 84.7814Z"/>
	<path fill="#FDC101" d="M52.3954 97.8024L53.1186 96.9994C55.7421 99.4654 58.35 101.607 61.6763 103.06L60.7259 104.685C59.8632 105.358 58.8906 106.308 57.9341 106.808C51.0651 108.949 44.0825 111.134 36.9834 112.373C39.9759 106.355 48.3999 102.714 53.9331 99.2814L53.897 98.6701L52.3954 97.8024Z"/>
	<path fill="#FD1370" d="M93.9231 24.9272C108.321 20.7242 128.044 20.5087 141.548 27.9157C143.086 28.7596 146.72 30.6175 147.6 32.038C146.912 35.1108 151.082 40.2665 152.666 43.0694L148.096 39.8043C141.809 38.7473 135.858 36.2571 129.33 37.4128C125.809 38.0361 123.28 40.3093 119.546 40.0668C115.926 39.8317 112.132 37.8428 108.59 36.9529C98.3754 34.3866 86.5535 34.3469 76.2615 36.7028C72.6058 36.59 68.9922 36.4841 65.3656 35.96C74.4735 31.0482 83.843 27.3257 93.9231 24.9272Z"/>
	<path fill="#FBE6F6" d="M121.116 30.3976Q121.503 30.4914 121.883 30.6132C123.39 31.0885 124.259 31.8841 124.97 33.2296C124.754 34.7331 124.387 35.1402 123.455 36.3454C122.533 36.2531 121.071 36.1813 120.282 35.7078C119.297 35.1172 119.145 34.6793 118.85 33.6002C119.095 32.1044 120.04 31.3706 121.116 30.3976Z"/>
	<path fill="#FB4290" d="M93.9231 24.9272C108.321 20.7242 128.044 20.5087 141.548 27.9157C143.086 28.7596 146.72 30.6175 147.6 32.038C146.912 35.1108 151.082 40.2665 152.666 43.0694L148.096 39.8043C145.963 36.3607 141.504 33.634 137.949 31.8936C136.023 30.9504 132.318 29.051 130.2 29.7808C127.862 29.5634 125.237 28.1489 122.873 27.5828Q117.571 26.3448 112.149 25.8332Q106.729 25.3215 101.288 25.5454C98.8571 25.7621 96.199 25.9127 93.9231 24.9272Z"/>
	<path fill="#FBE6F6" d="M101.288 25.5454C100.424 25.2925 99.5528 24.9971 98.6736 24.804C101.396 23.0499 114.792 23.3659 118.222 24.1026C121.489 24.8043 127.963 26.3618 129.943 29.3109C130.044 29.4613 130.124 29.6169 130.2 29.7808C127.862 29.5634 125.237 28.1489 122.873 27.5828Q117.571 26.3448 112.149 25.8332Q106.729 25.3215 101.288 25.5454Z"/>
	<path fill="#AF0032" d="M113.891 120.072C121.512 123.403 127.791 124.539 135.734 121.421Q136.554 121.099 137.366 120.758C139.246 137.961 144.877 155.287 154.971 169.481C148.209 173.11 139.513 174.708 131.865 173.108C135.373 172.678 139.183 172.944 142.728 172.923C128.934 157.686 118.044 140.457 113.891 120.072Z"/>
	<path fill="#FED402" d="M61.6763 103.06C63.3183 103.651 65.054 104.448 66.7396 104.861C66.059 109.571 65.3332 114.338 64.9221 119.079C70.6217 116.719 79.2386 111.807 83.2012 107.012L83.6678 106.916C84.6211 108.074 84.4233 108.691 84.2831 110.149C83.1716 121.718 83.0476 127.02 85.5156 138.519C85.4458 149.036 85.099 159.986 82.1163 170.155C81.4174 168.43 80.6522 166.727 79.3765 165.342C76.273 159.502 75.7386 150.476 75.0075 143.915L75.0903 139.406C73.5538 140.924 72.2686 142.56 70.9623 144.274C71.2315 140.397 72.7553 136.889 72.2507 132.95C67.2313 137.499 60.4917 144.212 54.2263 146.914C54.0159 147.124 53.687 147.118 53.3961 147.166C52.3454 145.184 52.1255 142.146 51.7267 139.918C49.0327 130.767 49.7692 122.504 52.795 113.627C54.3404 111.183 56.0592 109.007 57.9341 106.808C58.8906 106.308 59.8632 105.358 60.7259 104.685L61.6763 103.06Z"/>
	<path fill="#106208" d="M77.5918 126.515C76.6002 130.809 75.9227 135.088 75.0903 139.406C73.5538 140.924 72.2686 142.56 70.9623 144.274C71.2315 140.397 72.7553 136.889 72.2507 132.95C74.2615 131.137 75.9423 128.651 77.5918 126.515Z"/>
	<path fill="#FEFEFE" d="M60.7259 104.685C60.7677 106.785 55.1636 116.407 54.1796 119.644C52.7919 124.208 53.2311 137.447 51.7267 139.918C49.0327 130.767 49.7692 122.504 52.795 113.627C54.3404 111.183 56.0592 109.007 57.9341 106.808C58.8906 106.308 59.8632 105.358 60.7259 104.685Z"/>
	<path fill="#FDC101" d="M79.0639 118.503C78.4561 121.145 78.0499 123.843 77.5918 126.515C75.9423 128.651 74.2615 131.137 72.2507 132.95C67.2313 137.499 60.4917 144.212 54.2263 146.914C55.4028 141.401 74.1155 122.353 79.0639 118.503Z"/>
	<path fill="#52B502" d="M31.3379 91.0911C31.3959 90.9643 31.4642 90.8302 31.5562 90.7245C33.6525 88.3165 40.2237 84.8764 43.3661 84.7814C36.2655 91.9543 34.0967 97.4198 33.5515 107.5C33.4582 109.248 32.9889 111.135 33.9007 112.644C35.0357 112.868 35.8913 112.654 36.9834 112.373C44.0825 111.134 51.0651 108.949 57.9341 106.808C56.0592 109.007 54.3404 111.183 52.795 113.627C49.7692 122.504 49.0327 130.767 51.7267 139.918C52.1255 142.146 52.3454 145.184 53.3961 147.166C53.687 147.118 54.0159 147.124 54.2263 146.914C60.4917 144.212 67.2313 137.499 72.2507 132.95C72.7553 136.889 71.2315 140.397 70.9623 144.274C65.3916 152.555 58.5636 159.501 51.8683 166.849C51.059 167.858 50.8217 168.528 49.5321 168.8C47.7544 167.239 47.3438 164.862 46.6453 162.638L45.4939 159.717C44.8871 157.704 44.369 155.678 43.8645 153.638C43.1539 150.558 42.6586 147.494 42.2347 144.362C41.1262 138.824 42.0986 132.877 43.2666 127.435C42.8945 127.3 42.3845 127.337 41.9856 127.317C36.5179 130.391 32.3892 133.783 27.7691 138.001L28.3184 135.081L28.1113 130.879L26.4469 132.905C24.7571 130.646 23.8107 127.187 23.1062 124.472C23.0924 122.074 21.5645 116.806 20.2223 114.839C20.6217 110.209 23.1489 105.374 23.1865 101.007Q23.5855 100.412 24.0261 99.8475C25.6632 97.7782 27.707 94.7498 30.3581 94.4546C30.4824 94.3325 30.5913 94.2082 30.6893 94.0633C31.482 92.8914 31.666 92.4599 31.3379 91.0911ZM23.1865 101.007C23.1489 105.374 20.6217 110.209 20.2223 114.839C21.5645 116.806 23.0924 122.074 23.1062 124.472C24.5772 124.872 26.142 125.201 27.5436 125.8L27.9363 125.632C27.6888 125.342 27.6082 124.757 27.5064 124.388C28.4373 123.902 29.5092 123.647 30.5109 123.34C28.7838 117.366 29.3032 110.893 30.0452 104.809C30.3224 102.536 30.8589 100.097 30.5516 97.8146L29.3079 96.9968L30.3581 94.4546C27.707 94.7498 25.6632 97.7782 24.0261 99.8475Q23.5855 100.412 23.1865 101.007Z"/>
	<path fill="#63C203" d="M45.5752 130.287C46.0374 133.429 45.6062 136.737 45.5068 139.903C45.2892 146.84 46.3983 153.371 48.6729 159.92C49.5102 162.331 50.1945 164.863 51.8683 166.849C51.059 167.858 50.8217 168.528 49.5321 168.8C47.7544 167.239 47.3438 164.862 46.6453 162.638C46.8136 162.381 46.9448 162.121 47.0859 161.849C48.1998 159.701 44.625 147.613 44.3533 144.003C44.426 139.428 44.3661 134.732 45.5752 130.287Z"/>
	<path fill="#83E30C" d="M45.838 121.467C46.5192 121.977 47.0319 122.158 47.1651 123.068C47.498 125.344 45.5174 127.958 45.5752 130.287C44.3661 134.732 44.426 139.428 44.3533 144.003C44.625 147.613 48.1998 159.701 47.0859 161.849C46.9448 162.121 46.8136 162.381 46.6453 162.638L45.4939 159.717C44.8871 157.704 44.369 155.678 43.8645 153.638C43.1539 150.558 42.6586 147.494 42.2347 144.362C41.1262 138.824 42.0986 132.877 43.2666 127.435C43.8103 125.46 44.9942 123.35 45.838 121.467Z"/>
	<path fill="#043E85" d="M30.5109 123.34C35.2921 121.396 45.8853 115.228 50.3049 114.884C49.1305 116.176 47.6885 117.51 46.8467 119.042L45.838 121.467C44.9942 123.35 43.8103 125.46 43.2666 127.435C42.8945 127.3 42.3845 127.337 41.9856 127.317C36.5179 130.391 32.3892 133.783 27.7691 138.001L28.3184 135.081L28.1113 130.879L26.4469 132.905C24.7571 130.646 23.8107 127.187 23.1062 124.472C24.5772 124.872 26.142 125.201 27.5436 125.8L27.9363 125.632C27.6888 125.342 27.6082 124.757 27.5064 124.388C28.4373 123.902 29.5092 123.647 30.5109 123.34Z"/>
	<path fill="#0076F6" d="M23.1062 124.472C24.5772 124.872 26.142 125.201 27.5436 125.8L27.9363 125.632C29.2705 125.407 29.8944 125.018 31.0444 125.788C30.8552 127.595 29.1498 129.432 28.1113 130.879L26.4469 132.905C24.7571 130.646 23.8107 127.187 23.1062 124.472Z"/>
	<path fill="#2C9506" d="M46.8467 119.042L45.838 121.467C44.9942 123.35 43.8103 125.46 43.2666 127.435C42.8945 127.3 42.3845 127.337 41.9856 127.317C36.5179 130.391 32.3892 133.783 27.7691 138.001L28.3184 135.081C31.4686 129.219 40.3204 121.018 46.8467 119.042Z"/>
	<path fill="#075ABB" d="M23.1865 101.007Q23.5855 100.412 24.0261 99.8475C25.6632 97.7782 27.707 94.7498 30.3581 94.4546L29.3079 96.9968L30.5516 97.8146C30.8589 100.097 30.3224 102.536 30.0452 104.809C29.3032 110.893 28.7838 117.366 30.5109 123.34C29.5092 123.647 28.4373 123.902 27.5064 124.388C27.6082 124.757 27.6888 125.342 27.9363 125.632L27.5436 125.8C26.142 125.201 24.5772 124.872 23.1062 124.472C23.0924 122.074 21.5645 116.806 20.2223 114.839C20.6217 110.209 23.1489 105.374 23.1865 101.007ZM29.3079 96.9968C26.8592 103.872 26.5686 110.575 27.0572 117.787C27.2021 119.926 27.641 122.268 27.5064 124.388C28.4373 123.902 29.5092 123.647 30.5109 123.34C28.7838 117.366 29.3032 110.893 30.0452 104.809C30.3224 102.536 30.8589 100.097 30.5516 97.8146L29.3079 96.9968Z"/>
	<path fill="#83E30C" fill-opacity="0.98823529" d="M29.3079 96.9968L30.5516 97.8146C30.8589 100.097 30.3224 102.536 30.0452 104.809C29.3032 110.893 28.7838 117.366 30.5109 123.34C29.5092 123.647 28.4373 123.902 27.5064 124.388C27.641 122.268 27.2021 119.926 27.0572 117.787C26.5686 110.575 26.8592 103.872 29.3079 96.9968Z"/>
	<path fill="#FEFEFE" d="M81.0871 47.0502C89.1098 47.5543 102.915 48.6447 108.502 54.922C111.635 58.4431 112.024 63.3858 111.731 67.8741C111.573 70.2942 111.334 72.6697 110.705 75.0175C104.97 81.8002 105.798 86.4064 96.0105 90.7737C90.1184 93.4027 82.608 93.5934 76.5859 91.2746Q76.0465 91.0625 75.5181 90.8241Q74.9897 90.5858 74.4737 90.3217Q73.9577 90.0577 73.4553 89.7686Q72.9529 89.4795 72.4653 89.1661Q71.9777 88.8527 71.5061 88.5157Q71.0345 88.1787 70.58 87.8189Q70.1255 87.4591 69.6893 87.0774Q69.2531 86.6957 68.8361 86.293Q68.4192 85.8904 68.0225 85.4677Q67.6259 85.045 67.2505 84.6034Q66.8751 84.1617 66.5218 83.7021Q66.1686 83.2426 65.8384 82.7662Q65.5081 82.2898 65.2017 81.7978Q64.8953 81.3057 64.6135 80.7992Q64.3316 80.2927 64.075 79.773Q63.8184 79.2532 63.5876 78.7215C60.3807 71.4206 61.664 65.3112 64.4288 58.1855C68.8856 52.4477 74.2415 49.243 81.0871 47.0502Z"/>
	<path fill="#B5C0C7" d="M70.2975 74.9488C73.8294 79.876 77.6433 84.0534 83.9125 85.0976C88.3894 85.8433 92.8054 84.5511 96.4508 81.9246C98.688 80.3127 100.322 78.2704 101.909 76.043C101.962 78.8601 100.786 81.4226 98.9718 83.5406C96.3083 86.6496 92.2797 88.2192 88.2717 88.5429C83.5954 88.9205 78.8227 87.6692 75.2282 84.5792C72.2791 82.0442 70.581 78.8224 70.2975 74.9488Z"/>
	<path fill="#000203" d="M70.2975 74.9488C69.1348 69.1526 69.0682 63.7934 72.4821 58.6735C74.8466 55.1273 78.493 52.777 82.665 51.954Q83.523 51.784 84.3937 51.6997Q85.2644 51.6156 86.1391 51.618Q87.0138 51.6205 87.884 51.7097Q88.7542 51.7988 89.6112 51.9737Q90.4683 52.1486 91.3038 52.4076Q92.1393 52.6665 92.9451 53.007Q93.7508 53.3475 94.5188 53.7661Q95.2869 54.1847 96.0097 54.6774Q96.7031 55.1415 97.3475 55.6713Q97.992 56.2012 98.5814 56.7917Q99.1707 57.3823 99.6993 58.0278Q100.228 58.6734 100.69 59.3677Q101.153 60.062 101.545 60.7984Q101.938 61.5347 102.256 62.306Q102.574 63.0773 102.815 63.8761Q103.056 64.6749 103.217 65.4935C103.926 69.241 103.232 72.5294 101.909 76.043C100.322 78.2704 98.688 80.3127 96.4508 81.9246C92.8054 84.5511 88.3894 85.8433 83.9125 85.0976C77.6433 84.0534 73.8294 79.876 70.2975 74.9488Z"/>
	<path fill="#FEFEFE" d="M79.3804 58.9793C80.1701 58.9294 80.9755 58.8835 81.7658 58.9363C83.4453 59.0485 85.1714 59.9464 86.2532 61.2326Q86.4107 61.417 86.549 61.6162Q86.6872 61.8155 86.805 62.0274Q86.9228 62.2394 87.0188 62.4621Q87.1149 62.6848 87.1883 62.9159Q87.2617 63.147 87.3117 63.3843Q87.3617 63.6216 87.3878 63.8627Q87.4139 64.1038 87.4159 64.3463Q87.4179 64.5888 87.3957 64.8303C87.1821 67.2397 85.7366 68.5433 83.9829 69.977C83.0369 70.0518 82.0235 70.1513 81.0787 70.0524C79.5369 69.8911 77.9781 68.9476 77.0261 67.7404C76.107 66.575 75.7728 65.3243 75.962 63.8568C76.264 61.5145 77.6029 60.3613 79.3804 58.9793Z"/>
	<path fill="#B5C0C7" d="M146.603 95.6598C141.641 96.9177 137.251 97.4028 132.538 94.938C128.111 92.6225 125.038 88.4671 123.562 83.7463Q123.4 83.2257 123.264 82.6978Q123.128 82.1699 123.018 81.6358Q122.908 81.1018 122.824 80.563Q122.741 80.0242 122.684 79.482Q122.628 78.9398 122.598 78.3954Q122.568 77.851 122.565 77.3058Q122.562 76.7606 122.586 76.2159Q122.61 75.6712 122.66 75.1284Q122.711 74.5855 122.789 74.0459Q122.866 73.5062 122.97 72.971Q123.074 72.4358 123.204 71.9064Q123.335 71.377 123.491 70.8547Q123.647 70.3323 123.829 69.8184Q124.011 69.3044 124.218 68.8Q124.425 68.2956 124.657 67.8021Q124.888 67.3085 125.144 66.827C128.526 60.4201 134.048 57.0131 140.818 54.9447C143.458 54.1383 145.288 53.8397 147.824 55.1929Q148.798 55.7108 149.746 56.2754Q150.694 56.8399 151.613 57.4498Q152.532 58.0597 153.421 58.7135Q154.309 59.3673 155.165 60.0635Q156.021 60.7597 156.842 61.4965Q157.663 62.2334 158.447 63.0093Q159.231 63.7851 159.977 64.5981Q160.723 65.4111 161.428 66.2594Q162.133 67.1076 162.797 67.9891Q163.46 68.8706 164.08 69.7832Q164.699 70.6959 165.274 71.6375Q165.849 72.5792 166.377 73.5476Q166.906 74.516 167.386 75.5089Q167.867 76.5019 168.299 77.517Q168.731 78.5321 169.113 79.5669Q169.495 80.6018 169.827 81.654Q170.613 84.2505 171.028 86.9316Q171.442 89.6127 171.476 92.3254C172.312 104.2 169.101 114.293 161.272 123.31C158.89 126.055 156.184 128.705 153.166 130.753C154.609 127.134 155.829 123.469 156.313 119.585C156.454 117.824 156.524 116.073 156.431 114.307C156.023 106.584 152.218 100.701 146.603 95.6598Z"/>
	<path fill="#DDE2E3" d="M130.137 70.9916C132.303 71.4812 134.486 71.4388 136.653 71.8492C144.141 73.2675 150.289 77.4865 154.359 83.9471C159.767 92.5335 161.058 103.528 160.103 113.446C159.939 115.151 159.015 118.67 159.348 120.176C159.424 120.521 159.897 121.172 160.08 121.504C159.568 122.338 159.447 122.559 158.598 123.02C157.818 121.816 159.282 109.505 157.405 104.746C156.878 102.695 155.891 100.698 154.881 98.8448C152.802 95.0314 147.007 87.3492 142.192 87.0621C139.923 86.9268 137.647 87.908 135.389 87.2269C133.384 86.6223 131.867 85.1732 130.909 83.3401C128.992 79.6702 128.885 74.8818 130.137 70.9916Z"/>
	<path fill="#FEFEFE" d="M130.137 70.9916C130.632 69.8532 131.145 68.7168 131.727 67.6194C134.917 61.604 141.447 57.1444 147.824 55.1929Q148.798 55.7108 149.746 56.2754Q150.694 56.8399 151.613 57.4498Q152.532 58.0597 153.421 58.7135Q154.309 59.3673 155.165 60.0635Q156.021 60.7597 156.842 61.4965Q157.663 62.2334 158.447 63.0093Q159.231 63.7851 159.977 64.5981Q160.723 65.4111 161.428 66.2594Q162.133 67.1076 162.797 67.9891Q163.46 68.8706 164.08 69.7832Q164.699 70.6959 165.274 71.6375Q165.849 72.5792 166.377 73.5476Q166.906 74.516 167.386 75.5089Q167.867 76.5019 168.299 77.517Q168.731 78.5321 169.113 79.5669Q169.495 80.6018 169.827 81.654Q170.613 84.2505 171.028 86.9316Q171.442 89.6127 171.476 92.3254C169.699 103.195 165.581 112.076 160.08 121.504C159.897 121.172 159.424 120.521 159.348 120.176C159.015 118.67 159.939 115.151 160.103 113.446C161.058 103.528 159.767 92.5335 154.359 83.9471C150.289 77.4865 144.141 73.2675 136.653 71.8492C134.486 71.4388 132.303 71.4812 130.137 70.9916Z"/>
	<defs>
		<linearGradient id="gradient_1" gradientUnits="userSpaceOnUse" x1="152.60358" y1="145.82164" x2="82.720688" y2="113.51126">
			<stop offset="0" stop-color="#FF0400"/>
			<stop offset="1" stop-color="#FF7A00"/>
		</linearGradient>
	</defs>
	<path fill="url(#gradient_1)" d="M116.789 86.6852L115.277 93.1554C113.801 98.3266 112.961 103.549 112.953 108.94C113.051 112.694 113.431 116.35 113.891 120.072C118.044 140.457 128.934 157.686 142.728 172.923C139.183 172.944 135.373 172.678 131.865 173.108L131.559 173.016C128.789 173.218 125.907 173.039 123.125 173.017L111.443 173.075L101.985 173.179C100.448 169.402 99.1045 165.641 97.9041 161.744C96.9612 165.507 96.6609 169.415 96.2477 173.265C92.1664 173.336 85.9067 174.166 82.0537 173.169L82.1796 172.223L81.4014 170.965C80.68 169.111 80.045 167.216 79.3765 165.342C80.6522 166.727 81.4174 168.43 82.1163 170.155C85.099 159.986 85.4458 149.036 85.5156 138.519C83.0476 127.02 83.1716 121.718 84.2831 110.149C84.4233 108.691 84.6211 108.074 83.6678 106.916C85.9689 105.756 95.6721 105.989 101.134 103.26C103.205 102.225 104.884 101.269 105.65 98.9568C110.722 95.7397 113.708 91.764 116.789 86.6852Z"/>
	<path fill="#FB8201" d="M120.073 164.638C122.17 166.07 130.818 171.224 131.559 173.016C128.789 173.218 125.907 173.039 123.125 173.017C121.791 170.805 119.258 168.612 119.063 165.943C119.046 165.709 119.875 164.869 120.073 164.638Z"/>
	<path fill="#FEA904" d="M102.293 142.493C107.182 151.081 112.365 158.274 120.073 164.638C119.875 164.869 119.046 165.709 119.063 165.943C119.258 168.612 121.791 170.805 123.125 173.017L111.443 173.075C111.698 169.576 104.999 160.643 103.368 156.807C101.426 152.24 100.376 147.234 102.293 142.493Z"/>
	<path fill="#FDC101" d="M85.5156 138.519C90.1725 132.278 93.2566 124.472 96.574 117.438C97.4052 126.449 98.8782 134.045 102.293 142.493C100.376 147.234 101.426 152.24 103.368 156.807C104.999 160.643 111.698 169.576 111.443 173.075L101.985 173.179C100.448 169.402 99.1045 165.641 97.9041 161.744C96.9612 165.507 96.6609 169.415 96.2477 173.265C92.1664 173.336 85.9067 174.166 82.0537 173.169L82.1796 172.223L81.4014 170.965C80.68 169.111 80.045 167.216 79.3765 165.342C80.6522 166.727 81.4174 168.43 82.1163 170.155C85.099 159.986 85.4458 149.036 85.5156 138.519Z"/>
	<path fill="#2C9506" d="M82.1796 172.223C87.9714 164.895 92.4377 158.768 95.4602 149.822C96.0981 153.835 97.0106 157.783 97.9041 161.744C96.9612 165.507 96.6609 169.415 96.2477 173.265C92.1664 173.336 85.9067 174.166 82.0537 173.169L82.1796 172.223Z"/>
	<path fill="#000203" d="M713.754 64.3749C714.426 58.949 713.774 53.3297 714.165 47.8555C714.525 42.8097 715.832 37.9129 719.8 34.4863C728.15 27.2751 742.026 26.5192 752.441 27.2788C754.356 28.0612 756.602 29.5505 758.325 30.7318C761.931 33.2041 764.017 37.2278 764.789 41.4394C765.435 44.9607 766.14 63.4173 764.506 65.7833C771.655 64.1831 778.009 63.7709 785.282 64.9233C799.445 67.1677 811.206 75.1106 819.576 86.6071C821.929 85.7162 826.481 79.203 828.774 77.1403C839.865 67.1644 856.446 63.2982 871.001 64.0937C880.195 64.5961 896.187 68.4749 902.569 75.5899C903.522 74.1097 904.106 72.3674 905.017 70.8429C906.672 68.074 908.563 66.6766 911.699 65.9021C917.311 64.5157 938.661 64.6183 944.522 65.6481Q945.544 65.8172 946.544 66.0855Q947.545 66.3539 948.515 66.7188Q949.484 67.0838 950.413 67.5418Q951.342 67.9999 952.222 68.5467C955.348 70.4551 959.223 74.077 960.103 77.74C962.915 76.0202 965.075 71.3537 967.855 69.0209C974.206 63.6917 984.147 65.5026 991.767 65.4298C996.25 65.387 1000.9 64.9738 1005.36 65.3857C1008.83 65.7059 1012.13 66.8016 1014.41 69.5853C1016.71 72.3906 1017.46 76.1984 1017.08 79.7461C1016.88 81.6381 1016.41 83.4008 1015.49 85.0745C1012.37 90.7187 995.464 112.623 991.257 116.009C991.921 116.368 992.612 116.805 993.126 117.362C996.973 121.532 1021.17 150.647 1021.06 154.131Q1021.33 154.646 1021.48 155.212C1022.14 157.879 1021.62 161.532 1020.2 163.835C1017.74 167.791 1012.48 169.766 1008.17 170.795C1000.23 172.69 983.174 172.346 975.54 169.668C973.374 168.908 971.432 167.614 969.779 166.032C966.444 162.84 963.983 157.548 960.069 155.185L959.941 155.108C959.952 155.233 959.954 155.35 959.943 155.475C959.744 157.935 953.355 165.221 951.312 166.946C944.477 172.721 926.295 172.236 917.51 171.45C909.769 170.757 905.264 168.666 900.303 162.749C900.168 162.209 900.186 162.2 899.723 161.898C893.171 165.793 885.617 169.748 878.125 171.315C874.72 172.028 871.182 171.905 867.722 171.879C864.18 171.853 860.421 171.995 856.917 171.451C847.499 169.987 836.368 164.209 829.325 158.01C825.713 154.832 823.386 149.951 819.32 147.313L819.197 147.234C819.196 147.396 819.183 147.552 819.146 147.711C818.92 148.678 817.29 150.166 816.602 150.919C811.048 156.994 805.209 161.896 797.864 165.751C789.827 169.968 779.798 173.77 770.705 171.246C766.878 170.184 763.154 168.376 759.317 167.18C758.763 168.021 757.956 168.438 757.061 168.85C748.417 172.825 732.792 172.687 723.9 169.379C720.542 168.13 716.743 165.719 715.173 162.376C712.84 157.409 713.806 130.733 714.063 123.605C714.183 120.275 715.162 116.858 713.726 113.711C710.741 114.793 706.668 114.209 704.195 116.517C696.656 123.554 707.032 155.926 697.96 166.03C694.33 170.073 687.794 171.177 682.629 171.433C673.538 171.884 663.608 172.228 655.998 166.486C654.541 165.387 653.411 163.896 652.057 162.67Q647.157 165.355 641.963 167.416Q636.77 169.478 631.362 170.884C619.124 173.974 603.859 171.529 592.781 165.694C589.005 163.704 585.602 160.898 581.922 158.709C581.666 159.691 581.222 160.651 580.733 161.538C578.193 166.151 572.969 168.416 568.161 169.826C555.798 173.452 545.948 171.979 534.707 165.703C532.374 164.4 530.263 162.765 527.904 161.472C527.774 162.654 526.692 164.023 525.905 164.848C521.132 169.856 509.949 171.825 503.331 171.946C491.507 172.162 480.886 165.996 472.602 158.024C472.558 158.642 472.474 159.262 472.308 159.86C471.341 163.332 468.679 166.535 465.577 168.295C455.079 174.249 439.79 171.261 428.743 168.19C427.023 169.421 423.49 170.329 421.422 171.006C409.428 174.936 398.847 168.098 388.558 162.909C388.555 163.48 388.378 163.867 388.078 164.342C385.607 168.254 381.263 169.807 376.954 170.772C369.287 172.488 352.488 172.154 345.773 167.793C343.263 166.164 341.844 163.36 341.128 160.531C338.044 148.343 342.519 127.244 339.85 114.431L339.431 114.222C334.882 126.348 341.415 154.518 336.03 163.848C333.941 167.469 329.957 169.345 326.082 170.409C317.968 172.638 303.715 172.437 296.007 169.086C293.667 168.069 291.821 166.03 289.581 164.758C289.505 164.87 289.426 164.971 289.333 165.069C288.131 166.342 285.388 167.174 283.786 167.771C270.78 172.62 264.551 171.175 251.328 171.743C248.476 171.865 245.511 172.028 242.689 171.515C231.759 169.527 218.741 161.265 210.737 153.9C201.713 145.596 196.361 135.245 192.014 123.977C190.707 120.59 189.179 117.074 189.037 113.401C188.778 106.711 188.393 98.8808 189.282 92.2727C191.045 79.1574 198.585 65.0979 207.498 55.492C218.596 43.5329 234.34 35.0039 250.805 34.4024C261.714 34.004 272.137 34.4172 282.359 38.7176C283.972 39.3962 285.991 40.0444 287.278 41.2399C289.001 39.9614 290.268 37.5591 291.849 36.0028C297.351 30.5875 304.965 28.445 312.402 27.2496C318.424 26.8211 325.485 26.5359 330.828 29.7822C334.211 31.838 336.33 35.089 337.249 38.8889C338.257 43.0575 339.01 62.5197 337.059 65.7287C344.35 64.2206 351.15 63.668 358.521 65.1448C366.729 66.7894 376.101 71.4598 380.86 78.6083Q381.053 78.4371 381.249 78.2682C393.765 67.4604 412.697 63.0567 428.864 64.2727C437.116 64.8933 449.527 67.1011 455.278 73.7745C456.591 72.845 462.006 67.4144 463.225 66.0222C465.018 63.7765 464.491 56.7629 468.809 52.1129C472.912 47.6951 485.673 44.4549 491.624 44.2427C497.804 44.0223 504.925 46.5158 509.447 50.7713C514.196 55.2392 515.044 61.1783 515.223 67.4017C515.256 67.346 515.29 67.2907 515.322 67.234C517.404 63.5071 517.047 59.599 518.741 55.7675C520.401 52.0149 524.224 49.6337 527.907 48.2027C536.587 44.8308 545.73 42.6328 554.58 46.5502C558.961 48.4892 563.594 52.093 565.326 56.702C566.154 58.9059 567.05 63.012 566.077 65.1888Q566.555 65.2739 567.025 65.397C570.807 66.387 575.552 68.8826 577.557 72.3611C578.446 73.9033 578.985 75.701 578.509 77.4552C583.649 74.9403 587.797 70.8769 593.66 68.322C606.246 62.838 621.508 62.3847 634.312 67.4307C637.918 68.8517 648.677 74.2217 650.306 77.9614C652.309 75.2981 652.412 71.8789 654.964 69.2303C658.616 65.4395 663.844 65.246 668.803 65.155C675.305 65.0357 688.394 63.6122 693.223 68.2661C700.07 65.3478 706.18 63.3105 713.754 64.3749ZM740.605 38.7499C735.052 39.8906 730.621 42.3978 725.333 43.9385C725.451 44.1923 725.547 44.4499 725.641 44.7133C726.166 46.174 725.931 146.685 725.535 156.006C725.505 156.711 725.276 157.558 724.954 158.181C724.907 158.271 724.856 158.359 724.803 158.445C734.008 158.532 743.245 158.782 752.445 158.425C754.149 156.073 753.737 150.686 753.284 147.921C753.16 147.164 752.857 146.45 752.455 145.801C755.219 147.468 757.433 149.969 759.812 152.129C767.633 159.227 775.162 160.596 785.348 158.089C787.66 157.52 792.622 156.243 794.173 154.339C802.123 151.223 809.775 142.58 813.156 134.876C817.801 124.294 818.281 111.708 814.039 100.91C810.316 91.4329 802.313 82.9761 792.942 78.9332C784.877 75.4542 774.585 74.3892 766.291 77.697C761.149 79.7476 757.811 83.9303 753.128 86.3906C754.859 83.0494 754.331 46.5185 753.01 42.0411C751.597 40.1376 749.957 39.012 747.572 38.6612C745.363 38.3362 742.818 38.5023 740.605 38.7499ZM861.199 75.7498C848.358 77.9022 837.667 82.5072 829.884 93.4461C823.728 102.099 821.334 113.466 823.132 123.901Q823.323 124.975 823.567 126.038Q823.811 127.101 824.107 128.15Q824.404 129.2 824.751 130.234Q825.099 131.267 825.498 132.282Q825.896 133.298 826.344 134.292Q826.793 135.286 827.289 136.257Q827.786 137.228 828.331 138.173Q828.875 139.118 829.465 140.035Q830.056 140.952 830.691 141.838Q831.326 142.725 832.004 143.579Q832.682 144.433 833.402 145.253Q834.121 146.073 834.88 146.855Q835.64 147.638 836.437 148.383Q837.234 149.127 838.066 149.831Q838.899 150.536 839.766 151.198Q840.633 151.86 841.531 152.478C849.481 158.054 861.298 161.675 871.031 159.697C871.061 159.691 871.091 159.682 871.12 159.674C882.618 158.915 892.663 154.256 900.304 145.559C907.814 137.011 912.159 125.507 911.409 114.088C910.703 103.332 905.014 92.9094 896.954 85.8596C887.497 77.5886 874.969 74.7438 862.656 75.6104Q861.926 75.6625 861.199 75.7498ZM251.343 85.2474C244.717 90.0667 241.801 90.6955 240.321 99.9654Q240.244 100.481 240.192 101Q240.14 101.52 240.113 102.041Q240.087 102.562 240.086 103.083Q240.085 103.605 240.11 104.126Q240.135 104.647 240.186 105.166Q240.236 105.686 240.312 106.202Q240.388 106.718 240.489 107.23Q240.59 107.742 240.716 108.248Q240.843 108.754 240.994 109.253Q241.145 109.753 241.32 110.244Q241.495 110.735 241.694 111.218Q241.894 111.7 242.116 112.171Q242.339 112.643 242.585 113.103Q242.83 113.564 243.098 114.011Q243.366 114.459 243.656 114.893Q243.945 115.327 244.256 115.746C246.919 119.411 250.594 121.826 255.097 122.518C263.76 123.849 268.161 116.747 275.875 116.36C279.255 116.344 283.478 116.745 286.056 119.249Q286.351 119.537 286.59 119.873C288.172 117.022 288.049 91.858 287.003 88.2181Q286.912 87.8924 286.791 87.5763C286.109 89.1309 283.954 90.7813 282.393 91.4067C279.312 92.6416 275.51 91.7845 272.566 90.4903C263.826 86.6484 261.963 83.5239 251.343 85.2474ZM922.378 107.25C922.719 112.245 923.91 120.188 921.852 124.728C922.979 123.881 924.824 122.511 925.059 121C925.078 120.878 925.076 120.861 925.08 120.751C926.252 119.838 928.747 117.533 928.91 115.973C928.915 115.921 928.918 115.869 928.922 115.816C928.579 113.6 924.329 108.707 922.507 107.342C922.464 107.311 922.421 107.281 922.378 107.25Z"/>
	<path fill="#FEFEFE" d="M707.98 75.2498C712.569 74.8528 717.787 77.4712 722.041 79.0298C722.377 79.7069 721.967 81.6977 721.812 82.4948C720.846 87.4793 713.727 100.07 709.5 102.917C707.991 103.04 706.451 103.149 704.962 103.423C690.364 106.114 690.346 120.184 690.462 131.913C690.526 138.338 690.765 144.8 690.631 151.222C690.584 153.473 690.864 156.52 689.567 158.415C681.641 159.411 672.873 158.583 664.875 158.445C664.286 158.437 663.631 158.254 663.048 158.146C660.797 155.608 664.467 81.6039 661.624 77.0195C667.827 76.8732 679.459 75.5602 685.083 77.381C686.769 77.9269 688.27 78.9222 689.063 80.5435C689.968 82.3937 689.8 86.1469 689.124 88.0686C690.616 86.7885 691.853 85.0718 693.205 83.6348C697.63 78.9349 701.825 76.9476 707.98 75.2498Z"/>
	<path fill="#FEFEFE" d="M541.543 56.2497C544.542 55.9305 547.508 55.7534 550.342 57.0212C551.756 57.6537 553.433 58.8104 554.006 60.3053C554.362 60.7942 554.648 61.3467 554.793 61.9362C555.684 65.5588 556.501 74.0275 554.57 77.148C558.091 77.0504 564.109 76.1091 567.269 77.4335C567.428 77.8557 567.563 78.2948 567.649 78.7382C568.344 82.3313 568.864 98.2735 567.091 100.914C562.946 101.189 558.745 101.02 554.592 100.98C557.386 105.395 552.664 131.027 556.663 135.127C558.012 136.509 562.049 136.049 563.86 136.05C564.702 136.353 565.515 136.811 566.271 137.287C568.894 138.939 569.88 141.718 570.514 144.603C571.088 147.218 571.603 154.652 570.133 156.942C567.286 158.379 562.789 158.489 559.615 158.868C555.388 159.474 550.734 159.109 546.591 158.113C523.909 152.663 528.378 126.607 528.486 109.029C528.501 106.637 528.888 103.038 527.628 100.974L518.488 100.838C518.67 100.513 518.838 100.146 518.923 99.7814C519.627 96.735 519.344 79.4221 517.831 77.1062L527.132 77.0237C527.331 76.7151 527.515 76.3793 527.657 76.0398C528.74 73.4395 528.94 63.1366 527.878 60.4329C532.341 59.666 537.191 57.6237 541.543 56.2497Z"/>
	<path fill="#FEFEFE" d="M488.639 56.2495C491.732 55.8411 494.751 55.742 497.717 56.8773C499.326 57.4931 501.515 58.8373 502.223 60.4484C502.637 60.9471 502.863 61.4758 502.994 62.1043C503.738 65.6753 504.428 74.123 502.427 77.1419Q508.767 77.0103 515.105 77.2177C515.418 77.726 515.697 78.3068 515.801 78.8976C516.405 82.3286 516.657 98.5688 515.061 100.876C510.79 101.203 506.517 101.133 502.237 101.105C502.254 101.134 502.271 101.162 502.286 101.191C502.311 101.24 502.333 101.291 502.358 101.34C505.843 108.073 500.941 125.355 503.906 133.632C505.239 137.356 510.954 136.016 513.968 137.492C515.7 138.34 516.829 139.861 517.442 141.656C518.543 144.879 518.858 153.91 517.371 156.959C515.323 158.501 509.666 158.648 507.026 158.945Q503.8 159.292 500.562 159.104Q497.323 158.916 494.159 158.199C471.256 152.825 476.289 126.337 476.156 108.793C476.139 106.456 476.46 102.994 475.21 100.98L465.58 100.906C465.726 100.655 465.858 100.384 465.957 100.111C466.699 98.0626 466.536 79.1214 465.62 77.244C468.661 77.0917 471.716 77.0494 474.76 76.9551C474.952 76.659 475.129 76.3356 475.265 76.0095C476.28 73.565 476.504 62.6079 475.439 60.1307C479.919 59.0991 484.267 57.6571 488.639 56.2495Z"/>
	<path fill="#FEFEFE" d="M913.168 76.7498C916.24 76.2704 919.992 76.7888 923.119 76.837L944.494 77.0847C944.55 77.1118 944.606 77.1383 944.661 77.1661C947.207 78.4461 959.574 94.0242 960.37 96.561C962.794 94.7244 974.384 79.5903 975.127 77.1306C985.499 76.8516 995.924 77.0234 1006.3 77.0296C1006.3 77.2298 1006.3 77.4219 1006.27 77.6206C1006 79.5357 979.44 113.862 976.986 115.689C977.275 115.887 977.55 116.101 977.793 116.353C980.435 119.095 982.612 122.781 985.061 125.763C992.867 135.267 1002.52 146.03 1009.15 156.159C1009.63 156.901 1009.85 157.63 1009.83 158.513L1002.12 158.77C993.998 159.206 985.663 158.761 977.531 158.457C977.524 158.426 977.519 158.395 977.512 158.365C976.963 155.857 962.294 136.883 959.936 135.354C959.935 135.432 959.935 135.509 959.931 135.587C959.758 138.29 945.807 156.36 943.202 158.55Q926.523 158.722 909.844 158.62Q910.393 158.291 910.902 157.901C913.755 155.674 943.298 117.212 943.483 115.773C943.487 113.413 916.766 80.9221 913.168 76.7498Z"/>
	<path fill="#FEFEFE" d="M609.959 75.7498C619.538 74.8259 629.239 76.5379 637.282 82.0126C645.972 87.9281 652.639 97.5175 654.603 107.889C655.347 111.819 656.687 121.176 654.398 124.534C641.773 125.308 628.627 124.574 615.951 124.507C611.332 124.483 606.445 124.028 601.867 124.627L601.405 125.301Q601.452 125.674 601.527 126.043C602.155 129.112 604.739 131.672 607.292 133.329C612.793 136.903 619.511 137.207 625.785 135.869C628.318 135.329 633.209 133.643 634.62 131.406C634.636 131.38 634.651 131.354 634.667 131.328Q635.143 131.595 635.579 131.924C637.755 133.582 642.314 139.37 642.654 141.977C643.07 142.224 643.435 142.497 643.771 142.847C645.605 144.754 648.659 148.151 648.584 150.944C648.554 150.993 648.525 151.043 648.493 151.092C646.254 154.562 633.153 158.032 629.117 158.789C617.028 161.057 603.907 159.577 593.628 152.495C583.95 145.826 577.268 136.331 575.133 124.722C573.135 113.856 575.345 101.762 581.66 92.6318C588.593 82.608 598.24 77.8724 609.959 75.7498Z"/>
	<path fill="#000203" d="M611.292 99.2497C613.168 98.9998 615.109 98.7119 616.997 98.974C620.441 99.4519 624.354 101.511 626.436 104.306C627.64 105.923 628.975 108.45 628.661 110.506C625.171 110.961 621.57 110.797 618.055 110.787C612.31 110.476 606.526 110.692 600.775 110.793C604.96 107.202 602.177 104.033 611.292 99.2497Z"/>
	<path fill="#FEFEFE" d="M421.291 75.7499C430.451 75.2502 440.494 76.8724 448.076 82.3204C454.945 87.2561 459.3 94.6603 460.657 102.967C462.19 112.341 461.222 122.506 461.293 131.991C461.352 139.817 462.15 148.006 461.325 155.777C461.214 156.824 460.938 157.68 460.315 158.543C451.905 159.034 443.153 158.499 434.723 158.288C436.015 155.88 435.331 151.618 435.011 148.981C434.988 149.624 434.41 150.48 434.03 150.986C430.539 155.624 424.426 157.842 418.888 158.699C406.157 160.671 401.619 157.307 391.964 150.25C391.901 148.197 386.938 141.552 386.213 137.91C385.134 132.486 386.758 126.279 389.795 121.747C396.107 112.329 409.029 108.557 419.837 108.395C424.524 108.324 429.706 109.115 434.297 108.212L434.668 107.232C434.497 106.442 434.268 105.653 433.902 104.929C432.402 101.962 430.548 99.7851 427.243 98.7422C418.682 96.0414 409.066 100.507 401.647 104.354C401.66 104.194 401.667 104.036 401.653 103.875C401.38 100.725 391.183 89.1589 388.584 86.8492C390.916 85.9046 393.154 84.0269 395.426 82.8111C403.801 78.329 411.861 76.2758 421.291 75.7499Z"/>
	<path fill="#000203" d="M428.629 122.749C430.481 122.572 432.549 122.184 434.377 122.616C434.521 123.047 434.636 123.504 434.666 123.959C434.816 126.233 434.602 131.802 433.071 133.543C432.606 134.692 431.603 135.479 430.663 136.238C426.575 139.537 421.73 140.344 416.625 139.8C414.378 138.378 412.464 136.533 411.848 133.843C411.546 132.521 411.752 131.202 412.487 130.056C415.616 125.175 423.414 123.868 428.629 122.749Z"/>
	<path fill="#FEFEFE" d="M252.682 45.7495C258.289 45.4744 263.964 45.5467 269.468 46.7469C278.199 48.6505 284.859 53.0394 292.085 57.9558C293.476 58.9029 295.767 60.0052 296.682 61.4266C295.247 65.9117 281.639 78.663 277.62 80.7931C277.542 80.652 277.457 80.5127 277.356 80.3866C274.068 76.2871 265.474 73.7582 260.48 73.1678C253.247 72.3128 245.553 74.0714 239.793 78.6419C233.557 83.5906 229.719 91.2838 228.817 99.1227C227.781 108.135 230.081 116.545 235.738 123.658C240.31 129.406 246.72 133.401 254.087 134.223C261.965 135.102 271.169 132.141 277.327 127.212C280.398 128.552 285.82 134.529 287.236 137.653C287.271 137.675 287.307 137.697 287.342 137.721C289.539 139.198 294.155 144.446 294.654 146.925C294.545 147.36 294.39 147.736 294.088 148.074C286.702 156.334 272.008 159.601 261.423 160.337C246.147 161.399 232.128 157.134 220.526 147.005Q219.442 146.044 218.407 145.032Q217.372 144.02 216.387 142.958Q215.402 141.896 214.47 140.788Q213.537 139.68 212.66 138.527Q211.783 137.375 210.964 136.181Q210.144 134.988 209.383 133.755Q208.622 132.523 207.922 131.256Q207.222 129.988 206.585 128.687Q205.948 127.387 205.374 126.057Q204.801 124.727 204.293 123.371Q203.786 122.015 203.344 120.636Q202.903 119.256 202.53 117.857Q202.156 116.458 201.851 115.043Q201.546 113.627 201.311 112.198Q201.075 110.769 200.909 109.331Q200.744 107.892 200.648 106.447Q200.556 105.048 200.533 103.646Q200.51 102.244 200.555 100.842Q200.6 99.4406 200.714 98.043Q200.828 96.6453 201.01 95.2549Q201.191 93.8645 201.441 92.4846Q201.691 91.1048 202.007 89.7387Q202.324 88.3727 202.707 87.0238Q203.09 85.6749 203.538 84.3463Q203.987 83.0176 204.5 81.7125Q205.012 80.4074 205.588 79.1289Q206.164 77.8504 206.802 76.6016Q207.44 75.3528 208.138 74.1366Q208.836 72.9204 209.592 71.7397Q210.349 70.5591 211.162 69.4168Q211.976 68.2746 212.844 67.1734Q213.712 66.0722 214.633 65.0148C224.459 53.8053 237.753 46.7199 252.682 45.7495Z"/>
	<path fill="#FEFEFE" d="M861.199 75.7498Q861.926 75.6625 862.656 75.6104C874.969 74.7438 887.497 77.5886 896.954 85.8596C905.014 92.9094 910.703 103.332 911.409 114.088C912.159 125.507 907.814 137.011 900.304 145.559C892.663 154.256 882.618 158.915 871.12 159.674C871.091 159.682 871.061 159.691 871.031 159.697C861.298 161.675 849.481 158.054 841.531 152.478Q840.633 151.86 839.766 151.198Q838.899 150.536 838.066 149.831Q837.234 149.127 836.437 148.383Q835.64 147.638 834.88 146.855Q834.121 146.073 833.402 145.253Q832.682 144.433 832.004 143.579Q831.326 142.725 830.691 141.838Q830.056 140.952 829.465 140.035Q828.875 139.118 828.331 138.173Q827.786 137.228 827.289 136.257Q826.793 135.286 826.344 134.292Q825.896 133.298 825.498 132.282Q825.099 131.267 824.751 130.234Q824.404 129.2 824.107 128.15Q823.811 127.101 823.567 126.038Q823.323 124.975 823.132 123.901C821.334 113.466 823.728 102.099 829.884 93.4461C837.667 82.5072 848.358 77.9022 861.199 75.7498ZM863.933 100.25C858.833 101.64 855.126 103.821 852.453 108.524C850.034 112.782 849.225 117.881 850.557 122.622C851.703 126.706 854.626 131.063 858.389 133.155C860.817 134.505 865.148 135.447 867.851 134.687C868.004 134.644 867.994 134.644 868.114 134.587C872.934 133.94 877.341 131.818 880.344 127.898C883.157 124.225 884.277 119.654 883.65 115.084C883.016 110.462 880.672 106.092 876.92 103.261C873.028 100.325 868.67 99.679 863.933 100.25Z"/>
	<path fill="#000203" d="M863.933 100.25C868.67 99.679 873.028 100.325 876.92 103.261C880.672 106.092 883.016 110.462 883.65 115.084C884.277 119.654 883.157 124.225 880.344 127.898C877.341 131.818 872.934 133.94 868.114 134.587C867.994 134.644 868.004 134.644 867.851 134.687C865.148 135.447 860.817 134.505 858.389 133.155C854.626 131.063 851.703 126.706 850.557 122.622C849.225 117.881 850.034 112.782 852.453 108.524C855.126 103.821 858.833 101.64 863.933 100.25ZM864.058 112.25C862.584 114.542 861.176 117.133 861.783 119.981C862.019 121.087 862.691 121.921 863.665 122.473C864.203 122.778 864.962 122.889 865.568 123.004L865.271 122.461C866.521 123.189 866.759 122.963 868.112 122.656L868.469 122.25C870.015 121.623 871.269 120.829 871.952 119.233Q872.045 119.019 872.116 118.797Q872.186 118.575 872.234 118.347Q872.282 118.119 872.307 117.888Q872.332 117.656 872.333 117.423Q872.335 117.19 872.312 116.958Q872.29 116.726 872.245 116.498Q872.199 116.269 872.131 116.046Q872.062 115.824 871.972 115.609C871.372 114.184 869.953 112.69 868.51 112.102C867.238 111.584 865.386 112.032 864.058 112.25Z"/>
	<path fill="#FEFEFE" d="M314.565 38.7494C318.022 38.3918 322.138 38.3256 325.389 39.6979C325.448 39.7933 325.502 39.8883 325.552 39.9889C325.58 40.0464 325.607 40.1048 325.636 40.162C325.939 40.7557 326.19 41.3294 326.308 41.9922C327.276 47.4198 327.087 78.6525 326.466 84.1667C326.373 84.9978 326.102 85.7117 325.624 86.395C327.088 85.686 328.403 84.4193 329.718 83.4578C334.25 80.1462 338.857 77.1891 344.474 76.1791C351.992 74.8273 360.242 76.3902 366.526 80.7965C373.288 85.5381 377.227 93.4074 378.599 101.404C380.275 111.167 379.308 121.544 379.379 131.427C379.436 139.479 380.221 148.134 379.273 156.106C379.164 157.025 378.858 157.802 378.324 158.559C369.233 158.801 360.123 158.577 351.031 158.475C351.336 157.962 351.57 157.358 351.695 156.776C352.315 153.899 351.919 129.679 351.512 125.733C351.438 125.009 351.144 124.353 350.751 123.749C350.93 123.49 351.097 123.205 351.225 122.917C352.751 119.478 351.853 111.547 350.504 108.031C349.155 104.516 347.109 102.517 343.729 101.013C341.891 100.925 340.017 100.839 338.201 101.198C324.972 103.818 326.5 119.844 326.553 129.904L326.697 150.006C326.692 152.547 327.047 156.55 325.643 158.66C316.528 158.953 307.3 158.558 298.177 158.424C298.192 158.394 298.209 158.365 298.223 158.335C298.247 158.286 298.267 158.234 298.292 158.185C298.41 157.94 298.525 157.705 298.627 157.453C299.319 155.754 299.267 55.8542 298.923 45.8674C298.899 45.1591 298.664 44.4428 298.392 43.7922C303.734 41.7487 308.934 39.8346 314.565 38.7494Z"/>
	<path fill="#FEFEFE" d="M740.605 38.7499C742.818 38.5023 745.363 38.3362 747.572 38.6612C749.957 39.012 751.597 40.1376 753.01 42.0411C754.331 46.5185 754.859 83.0494 753.128 86.3906C757.811 83.9303 761.149 79.7476 766.291 77.697C774.585 74.3892 784.877 75.4542 792.942 78.9332C802.313 82.9761 810.316 91.4329 814.039 100.91C818.281 111.708 817.801 124.294 813.156 134.876C809.775 142.58 802.123 151.223 794.173 154.339C792.622 156.243 787.66 157.52 785.348 158.089C775.162 160.596 767.633 159.227 759.812 152.129C757.433 149.969 755.219 147.468 752.455 145.801C752.857 146.45 753.16 147.164 753.284 147.921C753.737 150.686 754.149 156.073 752.445 158.425C743.245 158.782 734.008 158.532 724.803 158.445C724.856 158.359 724.907 158.271 724.954 158.181C725.276 157.558 725.505 156.711 725.535 156.006C725.931 146.685 726.166 46.174 725.641 44.7133C725.547 44.4499 725.451 44.1923 725.333 43.9385C730.621 42.3978 735.052 39.8906 740.605 38.7499ZM767.377 100.25C762.158 101.922 758.446 104.26 755.876 109.27Q755.464 110.054 755.131 110.875Q754.798 111.696 754.548 112.546Q754.298 113.396 754.133 114.266Q753.968 115.136 753.89 116.019Q753.812 116.901 753.821 117.787Q753.83 118.673 753.927 119.553Q754.023 120.434 754.206 121.301Q754.389 122.168 754.657 123.012C755.991 127.154 758.873 130.741 762.772 132.723C766.142 134.437 769.895 134.809 773.605 134.331C778.286 133.547 782.398 131.22 785.187 127.324Q785.675 126.636 786.094 125.904Q786.513 125.172 786.858 124.403Q787.204 123.634 787.473 122.834Q787.742 122.035 787.931 121.213Q788.121 120.392 788.229 119.555Q788.338 118.719 788.365 117.876Q788.391 117.033 788.335 116.192Q788.28 115.35 788.142 114.518C787.361 109.957 784.765 105.587 780.955 102.919C776.918 100.092 772.164 99.5592 767.377 100.25Z"/>
	<path fill="#000203" d="M767.377 100.25C772.164 99.5592 776.918 100.092 780.955 102.919C784.765 105.587 787.361 109.957 788.142 114.518Q788.28 115.35 788.335 116.192Q788.391 117.033 788.365 117.876Q788.338 118.719 788.229 119.555Q788.121 120.392 787.931 121.213Q787.742 122.035 787.473 122.834Q787.204 123.634 786.858 124.403Q786.513 125.172 786.094 125.904Q785.675 126.636 785.187 127.324C782.398 131.22 778.286 133.547 773.605 134.331C769.895 134.809 766.142 134.437 762.772 132.723C758.873 130.741 755.991 127.154 754.657 123.012Q754.389 122.168 754.206 121.301Q754.023 120.434 753.927 119.553Q753.83 118.673 753.821 117.787Q753.812 116.901 753.89 116.019Q753.968 115.136 754.133 114.266Q754.298 113.396 754.548 112.546Q754.798 111.696 755.131 110.875Q755.464 110.054 755.876 109.27C758.446 104.26 762.158 101.922 767.377 100.25ZM769.975 111.75C768.197 112.341 767.091 112.991 766.239 114.715C765.495 116.222 765.346 117.912 765.904 119.506C766.331 120.729 767.222 121.797 768.41 122.337C769.435 122.804 770.795 122.96 771.897 122.75C773.711 122.152 775.286 121.302 776.181 119.524Q776.3 119.29 776.395 119.045Q776.49 118.801 776.559 118.548Q776.628 118.294 776.671 118.036Q776.714 117.777 776.73 117.515Q776.746 117.253 776.736 116.991Q776.725 116.728 776.688 116.469Q776.651 116.209 776.587 115.954Q776.523 115.7 776.434 115.453C775.949 114.082 774.797 112.786 773.475 112.168C772.495 111.709 771.296 111.763 770.235 111.747C770.148 111.746 770.062 111.748 769.975 111.75Z"/>
</svg>
